<svg width="2480" height="3508" viewBox="0 0 2480 3508" fill="none" xmlns="http://www.w3.org/2000/svg">
<path d="M1383.29 -229.272C1727.74 -149.184 1360.21 100.21 1589.42 327.386C1799.48 535.58 2294.95 250.758 2246.44 774.09C2213.22 1132.39 2299.85 1283.94 2572.36 1412.95" stroke="#56CCF2" stroke-width="1.18846"/>
<path d="M1402.89 -245.206C1747.35 -165.118 1379.82 84.276 1609.03 311.452C1819.08 519.646 2314.56 234.824 2266.04 758.156C2232.83 1116.45 2319.46 1268.01 2591.97 1397.02" stroke="#56CCF2" stroke-width="1.18846"/>
<path d="M1422.5 -261.14C1766.95 -181.052 1399.42 68.3418 1628.63 295.518C1838.69 503.712 2334.16 218.89 2285.65 742.222C2252.43 1100.52 2339.06 1252.07 2611.57 1381.09" stroke="#56CCF2" stroke-width="1.18846"/>
<path d="M1442.1 -277.074C1786.56 -196.986 1419.03 52.4077 1648.24 279.584C1858.29 487.778 2353.77 202.956 2305.25 726.288C2272.04 1084.58 2358.67 1236.14 2631.18 1365.15" stroke="#56CCF2" stroke-width="1.18846"/>
<path d="M1461.71 -293.008C1806.16 -212.92 1438.63 36.4737 1667.84 263.65C1877.9 471.843 2373.37 187.022 2324.86 710.354C2291.64 1068.65 2378.27 1220.2 2650.78 1349.22" stroke="#56CCF2" stroke-width="1.18846"/>
<path d="M1481.31 -308.942C1825.77 -228.854 1458.24 20.5397 1687.45 247.716C1897.5 455.91 2392.98 171.088 2344.46 694.42C2311.25 1052.72 2397.88 1204.27 2670.39 1333.28" stroke="#56CCF2" stroke-width="1.18846"/>
<path d="M1500.92 -324.876C1845.37 -244.788 1477.84 4.60553 1707.05 231.781C1917.11 439.975 2412.58 155.154 2364.07 678.485C2330.85 1036.78 2417.48 1188.34 2689.99 1317.35" stroke="#56CCF2" stroke-width="1.18846"/>
<path d="M1520.52 -340.81C1864.98 -260.723 1497.45 -11.3286 1726.66 215.847C1936.71 424.041 2432.19 139.22 2383.67 662.551C2350.46 1020.85 2437.09 1172.4 2709.6 1301.42" stroke="#56CCF2" stroke-width="1.18846"/>
<path d="M1540.13 -356.744C1884.58 -276.657 1517.06 -27.2625 1746.26 199.913C1956.32 408.107 2451.79 123.286 2403.28 646.617C2370.06 1004.91 2456.69 1156.47 2729.2 1285.48" stroke="#56CCF2" stroke-width="1.18846"/>
<path d="M1559.73 -372.678C1904.19 -292.591 1536.66 -43.1966 1765.87 183.979C1975.92 392.173 2471.4 107.352 2422.88 630.683C2389.67 988.98 2476.3 1140.53 2748.81 1269.55" stroke="#56CCF2" stroke-width="1.18846"/>
<path d="M1579.34 -388.612C1923.79 -308.525 1556.26 -59.1309 1785.47 168.045C1995.53 376.239 2491 91.4172 2442.49 614.749C2409.27 973.046 2495.9 1124.6 2768.41 1253.61" stroke="#56CCF2" stroke-width="1.18846"/>
<path d="M1598.95 -404.546C1943.4 -324.459 1575.87 -75.0648 1805.08 152.111C2015.13 360.305 2510.61 75.4833 2462.09 598.815C2428.88 957.112 2515.51 1108.67 2788.02 1237.68" stroke="#56CCF2" stroke-width="1.18846"/>
<path d="M1618.55 -420.48C1963 -340.393 1595.48 -90.9989 1824.68 136.177C2034.74 344.371 2530.21 59.5492 2481.7 582.881C2448.48 941.178 2535.11 1092.73 2807.62 1221.74" stroke="#56CCF2" stroke-width="1.18846"/>
<path d="M1638.16 -436.414C1982.61 -356.327 1615.08 -106.933 1844.29 120.243C2054.34 328.437 2549.82 43.6152 2501.3 566.947C2468.09 925.244 2554.72 1076.8 2827.23 1205.81" stroke="#56CCF2" stroke-width="1.18846"/>
<path d="M1657.76 -452.348C2002.21 -372.261 1634.68 -122.867 1863.89 104.309C2073.95 312.503 2569.42 27.6812 2520.91 551.013C2487.69 909.31 2574.32 1060.86 2846.83 1189.88" stroke="#56CCF2" stroke-width="1.18846"/>
<path d="M1677.37 -468.283C2021.82 -388.195 1654.29 -138.801 1883.5 88.3748C2093.55 296.569 2589.03 11.747 2540.51 535.079C2507.3 893.376 2593.93 1044.93 2866.44 1173.94" stroke="#56CCF2" stroke-width="1.18846"/>
<path d="M1696.97 -484.217C2041.42 -404.129 1673.89 -154.735 1903.1 72.4408C2113.16 280.635 2608.63 -4.18707 2560.12 519.145C2526.9 877.442 2613.53 1029 2886.04 1158.01" stroke="#56CCF2" stroke-width="1.18846"/>
<path d="M1716.57 -500.151C2061.03 -420.063 1693.5 -170.669 1922.71 56.5067C2132.76 264.701 2628.24 -20.1212 2579.72 503.211C2546.51 861.508 2633.14 1013.06 2905.65 1142.07" stroke="#56CCF2" stroke-width="1.18846"/>
<path d="M1736.18 -516.085C2080.63 -435.997 1713.1 -186.603 1942.31 40.5726C2152.37 248.767 2647.84 -36.0552 2599.33 487.277C2566.11 845.574 2652.74 997.128 2925.25 1126.14" stroke="#56CCF2" stroke-width="1.18846"/>
<path d="M1755.79 -532.019C2100.24 -451.931 1732.71 -202.537 1961.92 24.6385C2171.97 232.832 2667.45 -51.9893 2618.93 471.342C2585.72 829.639 2672.35 981.194 2944.86 1110.21" stroke="#56CCF2" stroke-width="1.18846"/>
<path d="M494.422 4219.66C605.856 3772.25 1009.35 4168.61 1354.77 3828.82C1671.34 3517.42 1207.56 2970.66 2025.91 2904.31C2586.18 2858.89 2819.23 2714.58 3009.81 2344.73" stroke="#56CCF2" stroke-width="1.18846"/>
<path d="M468.795 4199.15C580.229 3751.75 983.722 4148.1 1329.15 3808.31C1645.71 3496.92 1181.93 2950.15 2000.28 2883.81C2560.56 2838.38 2793.6 2694.07 2984.18 2324.23" stroke="#56CCF2" stroke-width="1.18846"/>
<path d="M443.167 4178.64C554.601 3731.24 958.094 4127.6 1303.52 3787.81C1620.08 3476.41 1156.3 2929.64 1974.65 2863.3C2534.93 2817.88 2767.97 2673.56 2958.55 2303.72" stroke="#56CCF2" stroke-width="1.18846"/>
<path d="M417.539 4158.14C528.973 3710.73 932.466 4107.09 1277.89 3767.3C1594.45 3455.91 1130.67 2909.14 1949.02 2842.79C2509.3 2797.37 2742.34 2653.06 2932.93 2283.21" stroke="#56CCF2" stroke-width="1.18846"/>
<path d="M391.912 4137.63C503.346 3690.23 906.839 4086.58 1252.26 3746.8C1568.83 3435.4 1105.05 2888.63 1923.39 2822.29C2483.67 2776.87 2716.72 2632.55 2907.3 2262.71" stroke="#56CCF2" stroke-width="1.18846"/>
<path d="M366.284 4117.13C477.718 3669.72 881.211 4066.08 1226.64 3726.29C1543.2 3414.89 1079.42 2868.13 1897.77 2801.78C2458.05 2756.36 2691.09 2612.05 2881.67 2242.2" stroke="#56CCF2" stroke-width="1.18846"/>
<path d="M340.657 4096.62C452.091 3649.22 855.584 4045.57 1201.01 3705.78C1517.57 3394.39 1053.79 2847.62 1872.14 2781.28C2432.42 2735.85 2665.46 2591.54 2856.04 2221.7" stroke="#56CCF2" stroke-width="1.18846"/>
<path d="M315.029 4076.11C426.463 3628.71 829.956 4025.06 1175.38 3685.28C1491.94 3373.88 1028.16 2827.11 1846.51 2760.77C2406.79 2715.35 2639.83 2571.03 2830.42 2201.19" stroke="#56CCF2" stroke-width="1.18846"/>
<path d="M289.401 4055.61C400.835 3608.2 804.328 4004.56 1149.75 3664.77C1466.32 3353.38 1002.54 2806.61 1820.88 2740.26C2381.16 2694.84 2614.21 2550.53 2804.79 2180.68" stroke="#56CCF2" stroke-width="1.18846"/>
<path d="M263.773 4035.1C375.207 3587.7 778.7 3984.05 1124.13 3644.27C1440.69 3332.87 976.908 2786.1 1795.26 2719.76C2355.54 2674.34 2588.58 2530.02 2779.16 2160.18" stroke="#56CCF2" stroke-width="1.18846"/>
<path d="M238.146 4014.59C349.58 3567.19 753.073 3963.55 1098.5 3623.76C1415.06 3312.36 951.28 2765.59 1769.63 2699.25C2329.91 2653.83 2562.95 2509.51 2753.53 2139.67" stroke="#56CCF2" stroke-width="1.18846"/>
<path d="M212.519 3994.09C323.953 3546.69 727.446 3943.04 1072.87 3603.25C1389.43 3291.86 925.653 2745.09 1744 2678.74C2304.28 2633.32 2537.32 2489.01 2727.91 2119.16" stroke="#56CCF2" stroke-width="1.18846"/>
<path d="M186.891 3973.58C298.325 3526.18 701.818 3922.53 1047.24 3582.75C1363.81 3271.35 900.025 2724.58 1718.37 2658.24C2278.65 2612.82 2511.69 2468.5 2702.28 2098.66" stroke="#56CCF2" stroke-width="1.18846"/>
<path d="M161.264 3953.08C272.698 3505.67 676.191 3902.03 1021.62 3562.24C1338.18 3250.85 874.398 2704.08 1692.75 2637.73C2253.03 2592.31 2486.07 2448 2676.65 2078.15" stroke="#56CCF2" stroke-width="1.18846"/>
<path d="M135.636 3932.57C247.07 3485.17 650.563 3881.52 995.989 3541.73C1312.55 3230.34 848.77 2683.57 1667.12 2617.23C2227.4 2571.8 2460.44 2427.49 2651.02 2057.65" stroke="#56CCF2" stroke-width="1.18846"/>
<path d="M110.008 3912.06C221.442 3464.66 624.935 3861.02 970.361 3521.23C1286.92 3209.83 823.142 2663.06 1641.49 2596.72C2201.77 2551.3 2434.81 2406.98 2625.39 2037.14" stroke="#56CCF2" stroke-width="1.18846"/>
<path d="M84.3809 3891.56C195.815 3444.16 599.308 3840.51 944.734 3500.72C1261.3 3189.33 797.515 2642.56 1615.86 2576.21C2176.14 2530.79 2409.18 2386.48 2599.77 2016.63" stroke="#56CCF2" stroke-width="1.18846"/>
<path d="M58.7529 3871.05C170.187 3423.65 573.68 3820 919.106 3480.22C1235.67 3168.82 771.887 2622.05 1590.24 2555.71C2150.52 2510.29 2383.56 2365.97 2574.14 1996.13" stroke="#56CCF2" stroke-width="1.18846"/>
<path d="M33.125 3850.55C144.559 3403.14 548.052 3799.5 893.478 3459.71C1210.04 3148.31 746.259 2601.55 1564.61 2535.2C2124.89 2489.78 2357.93 2345.47 2548.51 1975.62" stroke="#56CCF2" stroke-width="1.18846"/>
<path d="M7.49707 3830.04C118.931 3382.64 522.424 3778.99 867.85 3439.2C1184.41 3127.81 720.631 2581.04 1538.98 2514.7C2099.26 2469.27 2332.3 2324.96 2522.88 1955.12" stroke="#56CCF2" stroke-width="1.18846"/>
</svg>
