<svg fill="#000000" xmlns="http://www.w3.org/2000/svg"  viewBox="0 0 100 100" width="36px" height="36px"><path d="M 33 15 C 27.488666 15 23 19.488666 23 25 L 23 28 L 22 28 A 1.0001 1.0001 0 1 0 22 30 L 23 30 L 23 34 L 22 34 A 1.0001 1.0001 0 1 0 22 36 L 23 36 L 23 40 L 22 40 A 1.0001 1.0001 0 1 0 22 42 L 23 42 L 23 46 L 22 46 A 1.0001 1.0001 0 1 0 22 48 L 23 48 L 23 52 L 22 52 A 1.0001 1.0001 0 1 0 22 54 L 23 54 L 23 58 L 22 58 A 1.0001 1.0001 0 1 0 22 60 L 23 60 L 23 64 L 22 64 A 1.0001 1.0001 0 1 0 22 66 L 23 66 L 23 70 L 22 70 A 1.0001 1.0001 0 1 0 22 72 L 23 72 L 23 75 C 23 80.511334 27.488666 85 33 85 L 34 85 L 34 89.5 A 0.50005 0.50005 0 0 0 34.685547 89.964844 L 37 89.039062 L 39.314453 89.964844 A 0.50005 0.50005 0 0 0 40 89.5 L 40 85 L 67 85 C 72.511334 85 77 80.511334 77 75 L 77 64.580078 A 0.50005 0.50005 0 0 0 77 64.417969 L 77 55.580078 A 0.50005 0.50005 0 0 0 77 55.417969 L 77 46.580078 A 0.50005 0.50005 0 0 0 77 46.417969 L 77 37.580078 A 0.50005 0.50005 0 0 0 77 37.417969 L 77 28.580078 A 0.50005 0.50005 0 0 0 77 28.417969 L 77 25 C 77 19.488666 72.511334 15 67 15 L 33 15 z M 33 17 L 67 17 C 71.430666 17 75 20.569334 75 25 L 75 28 L 72.5 28 C 70.020742 28 68 30.020742 68 32.5 L 68 37.419922 A 0.50005 0.50005 0 0 0 68 37.582031 L 68 46.419922 A 0.50005 0.50005 0 0 0 68 46.582031 L 68 55.419922 A 0.50005 0.50005 0 0 0 68 55.582031 L 68 63.5 L 68 64.419922 A 0.50005 0.50005 0 0 0 68 64.582031 L 68 68.964844 A 0.50005 0.50005 0 0 0 68 69 L 68 73.5 L 68 79.5 A 0.50005 0.50005 0 1 0 69 79.5 L 69 74 L 75 74 L 75 75 C 75 79.430666 71.430666 83 67 83 L 33 83 C 28.569334 83 25 79.430666 25 75 L 25 72 L 27 72 A 1.0001 1.0001 0 1 0 27 70 L 25 70 L 25 66 L 27 66 A 1.0001 1.0001 0 1 0 27 64 L 25 64 L 25 60 L 27 60 A 1.0001 1.0001 0 1 0 27 58 L 25 58 L 25 54 L 27 54 A 1.0001 1.0001 0 1 0 27 52 L 25 52 L 25 48 L 27 48 A 1.0001 1.0001 0 1 0 27 46 L 25 46 L 25 42 L 27 42 A 1.0001 1.0001 0 1 0 27 40 L 25 40 L 25 36 L 27 36 A 1.0001 1.0001 0 1 0 27 34 L 25 34 L 25 30 L 27 30 A 1.0001 1.0001 0 1 0 27 28 L 25 28 L 25 25 C 25 20.569334 28.569334 17 33 17 z M 36.5 28 C 35.125015 28 34 29.125015 34 30.5 L 34 46.5 C 34 47.874985 35.125015 49 36.5 49 L 41.419922 49 A 0.50005 0.50005 0 0 0 41.582031 49 L 54.419922 49 A 0.50005 0.50005 0 0 0 54.582031 49 L 59.5 49 C 60.874985 49 62 47.874985 62 46.5 L 62 30.5 C 62 29.125015 60.874985 28 59.5 28 L 44.5 28 A 0.50005 0.50005 0 1 0 44.5 29 L 59.5 29 C 60.335015 29 61 29.664985 61 30.5 L 61 46.5 C 61 47.335015 60.335015 48 59.5 48 L 54.970703 48 C 54.831694 44.572256 53.295665 41.602793 50.990234 39.982422 C 52.202955 39.06893 53 37.630582 53 36 C 53 33.244499 50.755501 31 48 31 C 45.244499 31 43 33.244499 43 36 C 43 37.630582 43.797045 39.06893 45.009766 39.982422 C 42.703675 41.602798 41.168231 44.57232 41.029297 48 L 36.5 48 C 35.664985 48 35 47.335015 35 46.5 L 35 30.5 C 35 29.664985 35.664985 29 36.5 29 L 37.5 29 A 0.50005 0.50005 0 1 0 37.5 28 L 36.5 28 z M 39.5 28 A 0.50005 0.50005 0 1 0 39.5 29 L 41.5 29 A 0.50005 0.50005 0 1 0 41.5 28 L 39.5 28 z M 72.5 29 L 75 29 L 75 37 L 69 37 L 69 32.5 C 69 30.561258 70.561258 29 72.5 29 z M 48 32 C 50.215061 32 52 33.784939 52 36 C 52 38.215061 50.215061 40 48 40 C 45.784939 40 44 38.215061 44 36 C 44 33.784939 45.784939 32 48 32 z M 69 38 L 75 38 L 75 46 L 69 46 L 69 38 z M 45.953125 40.548828 C 46.579782 40.832331 47.269077 41 48 41 C 48.730923 41 49.420218 40.832331 50.046875 40.548828 C 52.232794 41.875212 53.821893 44.67789 53.970703 48 L 42.029297 48 C 42.178037 44.677688 43.766281 41.875148 45.953125 40.548828 z M 69 47 L 75 47 L 75 55 L 69 55 L 69 47 z M 69 56 L 75 56 L 75 64 L 69 64 L 69 63.5 L 69 56 z M 69 65 L 75 65 L 75 73 L 69 73 L 69 65 z M 35 85 L 39 85 L 39 88.761719 L 37.185547 88.035156 A 0.50005 0.50005 0 0 0 36.814453 88.035156 L 35 88.761719 L 35 85 z"/></svg>